<?xml version="1.0" encoding="utf-8"?>
<!-- Generator: Adobe Illustrator 23.0.0, SVG Export Plug-In . SVG Version: 6.00 Build 0)  -->
<svg version="1.1" id="Layer_1" xmlns="http://www.w3.org/2000/svg" xmlns:xlink="http://www.w3.org/1999/xlink" x="0px" y="0px"
	 viewBox="0 0 180 180" style="enable-background:new 0 0 180 180;" xml:space="preserve">
<style type="text/css">
	.st0{fill:#30286B;}
	.st1{fill:url(#SVGID_1_);}
	.st2{fill:url(#SVGID_2_);}
</style>
<path d="M124.24,76.48c0,8.13-3.2,15.51-8.41,20.95c-1.8,1.88-3.83,3.52-6.06,4.89c-3.17-1.73-6.66-2.35-10.27-2.48
	c-3.38-0.12-6.77,0.02-10.15-0.02c-1.72-0.02-3.43-0.08-5.14-0.25c-1.49-0.14-2.9-0.52-4.32,0.14c-0.04,0.02-0.08,0.04-0.09,0.08
	c-0.01,0.03,0,0.07,0.01,0.11c0.26,0.68,0.39,1.35,0.57,2.06c0.14,0.55,0.61,1.36,0.61,1.91c1.29,3.19,4.15,4.55,7.43,4.9
	c2.72,0.29,5.49,0.17,8.21,0.21c2.39,0.04,4.96,0.02,7.21,0.91c1.2,0.48,2.18,1.19,2.91,2.28c2.68,4.02,2.52,9.55,2.16,14.18
	c-0.25,3.21-0.97,6.93-2.92,9.58c-2.95,4.02-7.17,9.2-12.76,8.41c-2.07-0.29-4.02-1.39-5.35-3c2.85,0.42,5.93,0.89,8.79,0.23
	c1.06-0.24,2.1-0.74,2.8-1.58c1.34-1.61,1.53-4.38-0.4-5.56c-1.64-1.01-3.8-1.04-5.66-1.19c-4.58-0.38-10.23-0.27-13.47-4.13
	c4.04,1.41,8.35,1.94,12.61,2.03c2.13,0.04,4.24-0.09,6.37-0.21c1.89-0.11,3.85-0.53,5.32-1.8c0.01,0,0.01-0.01,0.02-0.01
	c1.88-1.63,1.45-4.25-0.37-5.74c-1.15-0.95-2.74-1.14-4.23-1.08c-3.97,0.15-7.9,0.27-11.85-0.39c-2.87-0.48-5.96-1.49-8.05-3.61
	c5.84,1.64,11.96,2.23,18.02,1.86c1.77-0.11,3.74-0.37,5.13-1.58c2.74-2.4-0.09-6.76-3.22-6.77c-2.9-0.01-5.76-0.28-8.65-0.42
	c-2.77-0.13-5.56-0.34-8.24-1.1c-1.83-0.52-3.52-1.54-4.85-2.9c-1.54-1.57-2.15-3.43-2.95-5.43c-0.54-1.32-1.27-2.46-2.05-3.64
	c-5.73-5.51-9.29-13.26-9.29-21.83c0-16.73,13.57-30.3,30.3-30.3S124.24,59.74,124.24,76.48z"/>
</svg>
