<?xml version="1.0" encoding="utf-8"?>
<!-- Generator: Adobe Illustrator 23.0.0, SVG Export Plug-In . SVG Version: 6.00 Build 0)  -->
<svg version="1.1" id="Layer_1" xmlns="http://www.w3.org/2000/svg" xmlns:xlink="http://www.w3.org/1999/xlink" x="0px" y="0px"
	 viewBox="0 0 360 360" style="enable-background:new 0 0 360 360;" xml:space="preserve">
<style type="text/css">
	.st0{display:none;fill:#30286B;}
	.st1{fill:url(#SVGID_1_);}
	.st2{fill:#30286B;}
	.st3{fill:url(#SVGID_2_);}
</style>
<rect x="-0.17" y="0" class="st0" width="360.35" height="360"/>
<g>
	<linearGradient id="SVGID_1_" gradientUnits="userSpaceOnUse" x1="186.0495" y1="86.0777" x2="191.4043" y2="285.5438">
		<stop  offset="0" style="stop-color:#FFCA52"/>
		<stop  offset="0.0904" style="stop-color:#FEC558"/>
		<stop  offset="0.2332" style="stop-color:#FBB465"/>
		<stop  offset="0.4091" style="stop-color:#F79A71"/>
		<stop  offset="0.5747" style="stop-color:#F37E79"/>
		<stop  offset="0.6838" style="stop-color:#F37B7A"/>
		<stop  offset="0.7651" style="stop-color:#F0747C"/>
		<stop  offset="0.8374" style="stop-color:#EC6880"/>
		<stop  offset="0.9045" style="stop-color:#E85383"/>
		<stop  offset="0.9674" style="stop-color:#E33285"/>
		<stop  offset="1" style="stop-color:#E00786"/>
	</linearGradient>
	<path class="st1" d="M246.32,154.31c0,15.68-6.18,29.92-16.23,40.41c-3.46,3.62-7.39,6.79-11.68,9.42
		c-6.12-3.33-12.84-4.54-19.81-4.79c-6.52-0.23-13.05,0.04-19.58-0.03c-3.31-0.04-6.62-0.16-9.91-0.47c-2.86-0.28-5.59-1-8.34,0.28
		c-0.07,0.03-0.16,0.08-0.18,0.16c-0.02,0.07,0,0.14,0.03,0.2c0.51,1.32,0.76,2.59,1.09,3.96c0.26,1.07,1.17,2.62,1.17,3.68
		c2.49,6.15,8,8.77,14.34,9.45c5.24,0.56,10.58,0.32,15.83,0.41c4.61,0.07,9.57,0.04,13.91,1.76c2.32,0.92,4.2,2.29,5.6,4.39
		c5.16,7.75,4.86,18.41,4.16,27.35c-0.48,6.2-1.87,13.36-5.63,18.47c-5.7,7.75-13.83,17.75-24.6,16.22
		c-3.99-0.57-7.75-2.67-10.32-5.79c5.5,0.81,11.44,1.71,16.94,0.45c2.05-0.47,4.05-1.43,5.4-3.04c2.59-3.1,2.95-8.44-0.77-10.73
		c-3.16-1.94-7.33-2-10.92-2.29c-8.84-0.72-19.73-0.51-25.98-7.97c7.79,2.71,16.1,3.75,24.32,3.91c4.11,0.08,8.19-0.17,12.29-0.41
		c3.64-0.21,7.42-1.03,10.26-3.47c0.01-0.01,0.02-0.02,0.03-0.03c3.63-3.15,2.79-8.19-0.71-11.06c-2.22-1.82-5.29-2.19-8.16-2.08
		c-7.66,0.29-15.24,0.52-22.85-0.75c-5.54-0.93-11.5-2.87-15.52-6.97c11.26,3.17,23.07,4.3,34.74,3.58c3.41-0.21,7.22-0.71,9.9-3.06
		c5.28-4.62-0.18-13.03-6.22-13.05c-5.58-0.02-11.12-0.54-16.68-0.81c-5.35-0.25-10.72-0.66-15.9-2.12
		c-3.53-1.01-6.78-2.97-9.35-5.6c-2.96-3.04-4.14-6.62-5.7-10.47c-1.03-2.55-2.45-4.74-3.96-7.01
		c-11.04-10.63-17.92-25.56-17.92-42.1c0-32.27,26.16-58.44,58.44-58.44S246.32,122.04,246.32,154.31z"/>
</g>
</svg>
